<svg width="21" height="22" viewBox="0 0 21 22" fill="none" xmlns="http://www.w3.org/2000/svg">
<path d="M7.21071 0.587311C5.04437 1.33884 3.17611 2.76526 1.88037 4.65705C0.584621 6.54885 -0.0703167 8.80631 0.0117538 11.0978C0.0938244 13.3894 0.908577 15.5942 2.33634 17.3884C3.7641 19.1827 5.72961 20.4718 7.94417 21.0664C9.73956 21.5297 11.6206 21.5501 13.4256 21.1257C15.0607 20.7584 16.5725 19.9728 17.8128 18.8458C19.1037 17.6369 20.0406 16.0991 20.523 14.3976C21.0473 12.5473 21.1406 10.6015 20.7957 8.70951H10.7137V12.8917H16.5525C16.4358 13.5588 16.1858 14.1954 15.8173 14.7635C15.4488 15.3317 14.9695 15.8196 14.4081 16.1982C13.6951 16.6698 12.8913 16.9872 12.0485 17.1298C11.2031 17.287 10.336 17.287 9.49069 17.1298C8.6339 16.9527 7.82339 16.5991 7.11077 16.0915C5.96596 15.2811 5.10636 14.1298 4.65463 12.802C4.19528 11.4492 4.19528 9.98265 4.65463 8.6299C4.97618 7.68169 5.50773 6.81835 6.20963 6.10431C7.01285 5.27218 8.02977 4.67737 9.14879 4.38514C10.2678 4.09291 11.4457 4.11455 12.5532 4.44769C13.4184 4.71327 14.2096 5.17731 14.8637 5.8028C15.5221 5.14783 16.1793 4.49116 16.8354 3.8328C17.1742 3.47878 17.5434 3.1417 17.8771 2.77921C16.8787 1.85007 15.7067 1.12708 14.4284 0.651679C12.1005 -0.193589 9.55333 -0.216305 7.21071 0.587311Z" fill="white"/>
<path d="M7.21081 0.587402C9.55323 -0.21676 12.1004 -0.194642 14.4285 0.650076C15.707 1.12871 16.8785 1.85517 17.8755 2.78777C17.5368 3.15026 17.1794 3.48904 16.8338 3.84137C16.1766 4.49747 15.5199 5.15131 14.8638 5.80289C14.2097 5.1774 13.4185 4.71337 12.5533 4.44778C11.4462 4.11347 10.2683 4.09058 9.14899 4.38162C8.02967 4.67265 7.01214 5.26637 6.20803 6.09763C5.50614 6.81166 4.97458 7.67501 4.65304 8.62322L1.1416 5.90452C2.39848 3.41207 4.57469 1.50553 7.21081 0.587402Z" fill="#E33629"/>
<path d="M0.210038 8.59783C0.398773 7.66245 0.712113 6.75661 1.14168 5.90454L4.65311 8.63001C4.19375 9.98276 4.19375 11.4493 4.65311 12.8021C3.4832 13.7055 2.31272 14.6134 1.14168 15.5258C0.0663121 13.3853 -0.261656 10.9464 0.210038 8.59783Z" fill="#F8BD00"/>
<path d="M10.7136 8.70801H20.7957C21.1405 10.6 21.0473 12.5458 20.523 14.3961C20.0406 16.0976 19.1036 17.6354 17.8127 18.8442C16.6795 17.96 15.5412 17.0826 14.408 16.1984C14.9698 15.8194 15.4494 15.3309 15.8179 14.7622C16.1863 14.1935 16.4362 13.5562 16.5525 12.8885H10.7136C10.7119 11.4962 10.7136 10.1021 10.7136 8.70801Z" fill="#587DBD"/>
<path d="M1.13965 15.5258C2.31069 14.6224 3.48117 13.7144 4.65108 12.802C5.1037 14.1303 5.96453 15.2817 7.11061 16.0915C7.82545 16.5968 8.6377 16.9475 9.49561 17.1214C10.341 17.2786 11.208 17.2786 12.0534 17.1214C12.8963 16.9787 13.7 16.6614 14.413 16.1898C15.5462 17.074 16.6845 17.9514 17.8177 18.8356C16.5776 19.9633 15.0658 20.7495 13.4305 21.1173C11.6255 21.5416 9.74448 21.5213 7.94909 21.058C6.5291 20.6789 5.20274 20.0105 4.05314 19.0948C2.83635 18.1288 1.84254 16.9113 1.13965 15.5258Z" fill="#319F43"/>
</svg>
